<svg width="70" height="56" viewBox="0 0 70 56" fill="none" xmlns="http://www.w3.org/2000/svg">
<path d="M20.7422 35.0469C20.7422 33.7188 20.2734 32.7031 19.3359 32C18.3984 31.2812 16.7109 30.5312 14.2734 29.75C11.8359 28.9531 9.90625 28.1719 8.48438 27.4062C4.60938 25.3125 2.67188 22.4922 2.67188 18.9453C2.67188 17.1016 3.1875 15.4609 4.21875 14.0234C5.26562 12.5703 6.75781 11.4375 8.69531 10.625C10.6484 9.8125 12.8359 9.40625 15.2578 9.40625C17.6953 9.40625 19.8672 9.85156 21.7734 10.7422C23.6797 11.6172 25.1562 12.8594 26.2031 14.4688C27.2656 16.0781 27.7969 17.9062 27.7969 19.9531H20.7656C20.7656 18.3906 20.2734 17.1797 19.2891 16.3203C18.3047 15.4453 16.9219 15.0078 15.1406 15.0078C13.4219 15.0078 12.0859 15.375 11.1328 16.1094C10.1797 16.8281 9.70312 17.7812 9.70312 18.9688C9.70312 20.0781 10.2578 21.0078 11.3672 21.7578C12.4922 22.5078 14.1406 23.2109 16.3125 23.8672C20.3125 25.0703 23.2266 26.5625 25.0547 28.3438C26.8828 30.125 27.7969 32.3438 27.7969 35C27.7969 37.9531 26.6797 40.2734 24.4453 41.9609C22.2109 43.6328 19.2031 44.4688 15.4219 44.4688C12.7969 44.4688 10.4062 43.9922 8.25 43.0391C6.09375 42.0703 4.44531 40.75 3.30469 39.0781C2.17969 37.4062 1.61719 35.4688 1.61719 33.2656H8.67188C8.67188 37.0312 10.9219 38.9141 15.4219 38.9141C17.0938 38.9141 18.3984 38.5781 19.3359 37.9062C20.2734 37.2188 20.7422 36.2656 20.7422 35.0469Z" fill="url(#paint0_linear)"/>
<path d="M33.0059 31.0557H34.0059V30.0557H33.0059V31.0557ZM33.0059 33.4902H32.0059V34.4902H33.0059V33.4902ZM34.9746 33.4902H35.9746V32.4902H34.9746V33.4902ZM34.9746 34.3516V35.3516H35.9746V34.3516H34.9746ZM33.0059 34.3516V33.3516H32.0059V34.3516H33.0059ZM33.2871 41.8662L32.4784 42.4544L32.4827 42.4603L32.4871 42.4662L33.2871 41.8662ZM35.0977 42.165L36.0964 42.1141L36.0402 41.0133L34.95 41.176L35.0977 42.165ZM35.1416 43.0264L35.4817 43.9667L36.178 43.7149L36.1403 42.9754L35.1416 43.0264ZM32.4434 42.5518L31.654 43.1657L31.6582 43.171L32.4434 42.5518ZM31.9512 34.3516H32.9512V33.3516H31.9512V34.3516ZM30.2021 34.3516H29.2021V35.3516H30.2021V34.3516ZM30.2021 33.4902V32.4902H29.2021V33.4902H30.2021ZM31.9512 33.4902V34.4902H32.9512V33.4902H31.9512ZM31.9512 31.0557V30.0557H30.9512V31.0557H31.9512ZM32.0059 31.0557V33.4902H34.0059V31.0557H32.0059ZM33.0059 34.4902H34.9746V32.4902H33.0059V34.4902ZM33.9746 33.4902V34.3516H35.9746V33.4902H33.9746ZM34.9746 33.3516H33.0059V35.3516H34.9746V33.3516ZM32.0059 34.3516V40.6885H34.0059V34.3516H32.0059ZM32.0059 40.6885C32.0059 41.3014 32.1088 41.9462 32.4784 42.4544L34.0958 41.278C34.0973 41.2801 34.0729 41.247 34.0488 41.1461C34.0247 41.045 34.0059 40.8963 34.0059 40.6885H32.0059ZM32.4871 42.4662C32.9351 43.0635 33.6137 43.2529 34.2451 43.2529V41.2529C34.1149 41.2529 34.0574 41.2336 34.046 41.229C34.0415 41.2272 34.0472 41.2289 34.0579 41.237C34.069 41.2454 34.0794 41.2559 34.0871 41.2662L32.4871 42.4662ZM34.2451 43.2529C34.5012 43.2529 34.849 43.2132 35.2453 43.1541L34.95 41.176C34.5611 41.234 34.3406 41.2529 34.2451 41.2529V43.2529ZM34.099 42.216L34.1429 43.0773L36.1403 42.9754L36.0964 42.1141L34.099 42.216ZM34.8015 42.086C34.6817 42.1293 34.438 42.1758 34.0166 42.1758V44.1758C34.5444 44.1758 35.0507 44.1226 35.4817 43.9667L34.8015 42.086ZM34.0166 42.1758C33.4844 42.1758 33.3045 42.0287 33.2285 41.9325L31.6582 43.171C32.2385 43.9068 33.1074 44.1758 34.0166 44.1758V42.1758ZM33.2327 41.9378C33.0962 41.7623 32.9512 41.3999 32.9512 40.6973H30.9512C30.9512 41.6236 31.1342 42.4974 31.654 43.1657L33.2327 41.9378ZM32.9512 40.6973V34.3516H30.9512V40.6973H32.9512ZM31.9512 33.3516H30.2021V35.3516H31.9512V33.3516ZM31.2021 34.3516V33.4902H29.2021V34.3516H31.2021ZM30.2021 34.4902H31.9512V32.4902H30.2021V34.4902ZM32.9512 33.4902V31.0557H30.9512V33.4902H32.9512ZM31.9512 32.0557H33.0059V30.0557H31.9512V32.0557ZM36.9258 35.6348L36.0271 35.1962L36.0243 35.202L36.9258 35.6348ZM38.4287 33.9297L38.9601 34.7768L38.9621 34.7755L38.4287 33.9297ZM43.7109 34.6504L42.9608 35.3117L42.963 35.3141L43.7109 34.6504ZM44.3525 40.8818L43.4525 40.4461L43.451 40.4491L44.3525 40.8818ZM37.5762 41.8486L36.826 42.5099L36.8307 42.5151L37.5762 41.8486ZM38.332 41.1982L37.5511 41.823L37.5567 41.8298L38.332 41.1982ZM42.9551 41.1982L42.1773 40.5698L42.1767 40.5705L42.9551 41.1982ZM42.3047 34.7119L41.7386 35.5363L41.7454 35.5409L42.3047 34.7119ZM38.3408 35.3184L39.1187 35.9468L39.1211 35.9438L38.3408 35.3184ZM37.3984 38.1045C37.3984 37.3214 37.5483 36.6488 37.8273 36.0675L36.0243 35.202C35.6002 36.0855 35.3984 37.0595 35.3984 38.1045H37.3984ZM37.8245 36.0733C38.1061 35.4963 38.4851 35.0748 38.9601 34.7768L37.8973 33.0826C37.0833 33.5932 36.4603 34.3084 36.0271 35.1962L37.8245 36.0733ZM38.9621 34.7755C39.442 34.4729 39.9901 34.3145 40.6348 34.3145V32.3145C39.6388 32.3145 38.7162 32.5662 37.8953 33.0838L38.9621 34.7755ZM40.6348 34.3145C41.6348 34.3145 42.3792 34.652 42.9608 35.3117L44.4611 33.9891C43.4723 32.8676 42.166 32.3145 40.6348 32.3145V34.3145ZM42.963 35.3141C43.5496 35.9751 43.8887 36.8939 43.8887 38.1748H45.8887C45.8887 36.526 45.4426 35.0952 44.4589 33.9866L42.963 35.3141ZM43.8887 38.1748V38.3945H45.8887V38.1748H43.8887ZM43.8887 38.3945C43.8887 39.182 43.7365 39.8594 43.4525 40.4461L45.2526 41.3176C45.6834 40.4277 45.8887 39.4469 45.8887 38.3945H43.8887ZM43.451 40.4491C43.1759 41.0222 42.8027 41.4369 42.3326 41.7275L43.3842 43.4287C44.2032 42.9224 44.826 42.2063 45.2541 41.3146L43.451 40.4491ZM42.3326 41.7275C41.8602 42.0195 41.3101 42.1758 40.6523 42.1758V44.1758C41.6469 44.1758 42.5675 43.9336 43.3842 43.4287L42.3326 41.7275ZM40.6523 42.1758C39.6574 42.1758 38.9102 41.8404 38.3217 41.1821L36.8307 42.5151C37.8242 43.6264 39.1277 44.1758 40.6523 44.1758V42.1758ZM38.3263 41.1873C37.7375 40.5194 37.3984 39.596 37.3984 38.3154H35.3984C35.3984 39.9645 35.8446 41.3966 36.826 42.5099L38.3263 41.1873ZM37.3984 38.3154V38.1045H35.3984V38.3154H37.3984ZM36.4531 38.3945C36.4531 39.7086 36.7951 40.8779 37.5512 41.8229L39.1129 40.5735C38.697 40.0537 38.4531 39.3539 38.4531 38.3945H36.4531ZM37.5567 41.8298C38.3426 42.7946 39.4033 43.2881 40.6523 43.2881V41.2881C39.9913 41.2881 39.5051 41.055 39.1074 40.5667L37.5567 41.8298ZM40.6523 43.2881C41.898 43.2881 42.954 42.7926 43.7335 41.826L42.1767 40.5705C41.7843 41.057 41.3051 41.2881 40.6523 41.2881V43.2881ZM43.7329 41.8267C44.5035 40.873 44.8428 39.6679 44.8428 38.3066H42.8428C42.8428 39.336 42.5902 40.0586 42.1773 40.5698L43.7329 41.8267ZM44.8428 38.3066V38.1045H42.8428V38.3066H44.8428ZM44.8428 38.1045C44.8428 37.2515 44.6839 36.4457 44.3516 35.7016L42.5254 36.5172C42.7322 36.9801 42.8428 37.5044 42.8428 38.1045H44.8428ZM44.3516 35.7016C44.0157 34.9496 43.5243 34.3285 42.864 33.8829L41.7454 35.5409C42.0577 35.7516 42.3222 36.0621 42.5254 36.5172L44.3516 35.7016ZM42.8708 33.8876C42.2072 33.4318 41.4505 33.2109 40.6348 33.2109V35.2109C41.073 35.2109 41.4296 35.324 41.7386 35.5362L42.8708 33.8876ZM40.6348 33.2109C39.3906 33.2109 38.3401 33.7204 37.5606 34.6929L39.1211 35.9438C39.5251 35.4397 40.004 35.2109 40.6348 35.2109V33.2109ZM37.563 34.6899C36.7931 35.6428 36.4531 36.8444 36.4531 38.2012H38.4531C38.4531 37.179 38.705 36.4588 39.1186 35.9468L37.563 34.6899ZM36.4531 38.2012V38.3945H38.4531V38.2012H36.4531ZM51.4629 34.3867L51.2817 35.3702L52.4304 35.5818L52.4625 34.4142L51.4629 34.3867ZM49.0811 34.8789L49.7082 35.6578L49.7094 35.6568L49.0811 34.8789ZM48.1143 36.4697L47.1506 36.2025L47.1143 36.3336V36.4697H48.1143ZM48.1143 43V44H49.1143V43H48.1143ZM47.0684 43H46.0684V44H47.0684V43ZM47.0684 33.4902V32.4902H46.0684V33.4902H47.0684ZM48.0967 33.4902L49.0966 33.4786L49.0851 32.4902H48.0967V33.4902ZM48.1143 35.002L47.1143 35.0136L49.0105 35.4454L48.1143 35.002ZM51.4893 33.4287L52.4889 33.4562L52.5072 32.7892L51.8983 32.5162L51.4893 33.4287ZM51.6441 33.4033C51.3554 33.3501 51.057 33.3252 50.751 33.3252V35.3252C50.9489 35.3252 51.1251 35.3413 51.2817 35.3702L51.6441 33.4033ZM50.751 33.3252C49.8944 33.3252 49.1085 33.5713 48.4527 34.101L49.7094 35.6568C49.9676 35.4483 50.295 35.3252 50.751 35.3252V33.3252ZM48.4539 34.1C47.8031 34.624 47.3858 35.3544 47.1506 36.2025L49.0779 36.737C49.2294 36.1905 49.4566 35.8604 49.7082 35.6578L48.4539 34.1ZM47.1143 36.4697V43H49.1143V36.4697H47.1143ZM48.1143 42H47.0684V44H48.1143V42ZM48.0684 43V33.4902H46.0684V43H48.0684ZM47.0684 34.4902H48.0967V32.4902H47.0684V34.4902ZM47.0967 33.5019L47.1143 35.0136L49.1142 34.9903L49.0966 33.4786L47.0967 33.5019ZM49.0105 35.4454C49.2227 35.0167 49.4711 34.7485 49.7346 34.5826C49.997 34.4175 50.3365 34.3145 50.7949 34.3145V32.3145C50.0229 32.3145 49.3004 32.4927 48.6692 32.89C48.0391 33.2867 47.5625 33.8622 47.218 34.5585L49.0105 35.4454ZM50.7949 34.3145C50.8998 34.3145 50.9751 34.3214 51.0259 34.3297C51.0774 34.3382 51.0912 34.3461 51.0802 34.3412L51.8983 32.5162C51.5471 32.3588 51.1568 32.3145 50.7949 32.3145V34.3145ZM50.4896 33.4012L50.4633 34.3592L52.4625 34.4142L52.4889 33.4562L50.4896 33.4012ZM56.3057 41.4883L55.3676 41.8347L56.3345 44.4535L57.2503 41.8163L56.3057 41.4883ZM59.083 33.4902V32.4902H58.3717L58.1383 33.1622L59.083 33.4902ZM60.2168 33.4902L61.1562 33.833L61.6462 32.4902H60.2168V33.4902ZM56.1562 44.6172L57.0754 45.0111L57.0862 44.9858L57.0957 44.96L56.1562 44.6172ZM55.9453 45.1094L56.8566 45.5211L56.8606 45.5122L56.8645 45.5033L55.9453 45.1094ZM52.7197 46.7178L51.7198 46.7279L51.7273 47.4742L52.445 47.6793L52.7197 46.7178ZM52.7109 45.8477L52.8073 44.8523L51.6997 44.7451L51.711 45.8578L52.7109 45.8477ZM53.2559 45.9004L53.1595 46.8957L53.2076 46.9004H53.2559V45.9004ZM54.5039 45.5137L53.888 44.7259L53.88 44.7321L53.8722 44.7384L54.5039 45.5137ZM55.3213 44.2041L54.3813 43.8629L54.3799 43.8666L55.3213 44.2041ZM55.7871 42.9209L56.7271 43.2621L56.8539 42.9128L56.7218 42.5655L55.7871 42.9209ZM52.2012 33.4902V32.4902H50.7511L51.2665 33.8457L52.2012 33.4902ZM53.3525 33.4902L54.2906 33.1439L54.0493 32.4902H53.3525V33.4902ZM57.2503 41.8163L60.0277 33.8183L58.1383 33.1622L55.361 41.1602L57.2503 41.8163ZM59.083 34.4902H60.2168V32.4902H59.083V34.4902ZM59.2774 33.1474L55.2168 44.2744L57.0957 44.96L61.1562 33.833L59.2774 33.1474ZM55.2371 44.2233L55.0262 44.7155L56.8645 45.5033L57.0754 45.0111L55.2371 44.2233ZM55.034 44.6977C54.8259 45.1582 54.5928 45.4337 54.3676 45.595C54.1515 45.7498 53.8862 45.8408 53.5283 45.8408V47.8408C54.2603 47.8408 54.9427 47.6433 55.5323 47.2209C56.1127 46.8051 56.5432 46.2148 56.8566 45.5211L55.034 44.6977ZM53.5283 45.8408C53.3846 45.8408 53.2082 45.8173 52.9944 45.7563L52.445 47.6793C52.8054 47.7823 53.1682 47.8408 53.5283 47.8408V45.8408ZM53.7197 46.7077L53.7109 45.8376L51.711 45.8578L51.7198 46.7279L53.7197 46.7077ZM52.6146 46.843L53.1595 46.8957L53.3522 44.905L52.8073 44.8523L52.6146 46.843ZM53.2559 46.9004C53.9397 46.9004 54.598 46.7269 55.1356 46.2889L53.8722 44.7384C53.777 44.816 53.6033 44.9004 53.2559 44.9004V46.9004ZM55.1198 46.3015C55.6563 45.8821 56.0116 45.2417 56.2626 44.5416L54.3799 43.8666C54.1856 44.4087 53.9961 44.6414 53.888 44.7259L55.1198 46.3015ZM56.2613 44.5453L56.7271 43.2621L54.8471 42.5797L54.3813 43.8629L56.2613 44.5453ZM56.7218 42.5655L53.1359 33.1348L51.2665 33.8457L54.8524 43.2763L56.7218 42.5655ZM52.2012 34.4902H53.3525V32.4902H52.2012V34.4902ZM52.4144 33.8366L55.3676 41.8347L57.2438 41.1419L54.2906 33.1439L52.4144 33.8366ZM66.9141 39.3262L66.3087 40.1221L66.3141 40.1262L66.9141 39.3262ZM65.0244 38.5879L64.814 39.5655L64.8205 39.5669L65.0244 38.5879ZM63.0557 37.9727L62.6039 38.8648L62.6107 38.8682L62.6175 38.8715L63.0557 37.9727ZM62.0186 37.1201L61.1864 37.6749L61.1932 37.6848L62.0186 37.1201ZM62.625 34.0527L63.2379 34.8429L63.2425 34.8393L62.625 34.0527ZM67.582 34.1055L66.9453 34.8766L66.953 34.8829L67.582 34.1055ZM68.5488 36.1533V37.1533H69.5488V36.1533H68.5488ZM67.4941 36.1533H66.4941V37.1533H67.4941V36.1533ZM66.791 34.7646L66.1675 35.5465L66.1723 35.5503L66.791 34.7646ZM63.3633 34.6768L63.9542 35.4835L63.9561 35.4821L63.3633 34.6768ZM63.2578 36.9795L62.6514 37.7746L62.6589 37.7803L62.6665 37.7859L63.2578 36.9795ZM65.165 37.6914L64.9357 38.6647L64.937 38.6651L65.165 37.6914ZM67.2393 38.3857L66.7652 39.2662L66.7698 39.2687L67.2393 38.3857ZM67.626 42.4551L67.0318 41.6507L67.0283 41.6533L67.626 42.4551ZM62.3965 42.376L61.7783 43.1621L61.7858 43.1679L62.3965 42.376ZM61.3682 40.3369V39.3369H60.3682V40.3369H61.3682ZM62.4229 40.3369L63.4206 40.2704L63.3584 39.3369H62.4229V40.3369ZM63.1963 41.7783L62.6075 42.5867L62.6188 42.5947L63.1963 41.7783ZM68.5469 40.583C68.5469 39.7426 68.1844 39.0289 67.5141 38.5262L66.3141 40.1262C66.4875 40.2562 66.5469 40.3804 66.5469 40.583H68.5469ZM67.5194 38.5302C66.9321 38.0835 66.1348 37.7977 65.2284 37.6089L64.8205 39.5669C65.6015 39.7296 66.064 39.936 66.3087 40.1221L67.5194 38.5302ZM65.2349 37.6103C64.4258 37.4361 63.8585 37.2515 63.4939 37.0738L62.6175 38.8715C63.1904 39.1508 63.9355 39.3764 64.814 39.5655L65.2349 37.6103ZM63.5074 37.0805C63.1533 36.9012 62.9543 36.7168 62.8439 36.5554L61.1932 37.6848C61.5399 38.1914 62.0323 38.5754 62.6039 38.8648L63.5074 37.0805ZM62.8506 36.5654C62.7562 36.4238 62.6846 36.2211 62.6846 35.9072H60.6846C60.6846 36.5425 60.8356 37.1485 61.1865 37.6748L62.8506 36.5654ZM62.6846 35.9072C62.6846 35.4865 62.8387 35.1525 63.2379 34.8429L62.0121 33.2626C61.1573 33.9256 60.6846 34.828 60.6846 35.9072H62.6846ZM63.2425 34.8393C63.6562 34.5146 64.2263 34.3145 65.0332 34.3145V32.3145C63.8831 32.3145 62.8478 32.6065 62.0075 33.2662L63.2425 34.8393ZM65.0332 34.3145C65.9278 34.3145 66.5311 34.5346 66.9453 34.8766L68.2187 33.3344C67.3556 32.6217 66.2597 32.3145 65.0332 32.3145V34.3145ZM66.953 34.8829C67.3581 35.2106 67.5488 35.6052 67.5488 36.1533H69.5488C69.5488 35.0139 69.095 34.0433 68.211 33.3281L66.953 34.8829ZM68.5488 35.1533H67.4941V37.1533H68.5488V35.1533ZM68.4941 36.1533C68.4941 35.2657 68.0993 34.5221 67.4097 33.979L66.1723 35.5503C66.4202 35.7455 66.4941 35.9277 66.4941 36.1533H68.4941ZM67.4145 33.9828C66.7413 33.446 65.9223 33.2109 65.0332 33.2109V35.2109C65.562 35.2109 65.9149 35.345 66.1675 35.5465L67.4145 33.9828ZM65.0332 33.2109C64.1963 33.2109 63.4117 33.3994 62.7705 33.8714L63.9561 35.4821C64.1586 35.333 64.4873 35.2109 65.0332 35.2109V33.2109ZM62.7724 33.87C62.1136 34.3525 61.7393 35.0437 61.7393 35.8721H63.7393C63.7393 35.7161 63.7809 35.6104 63.9542 35.4835L62.7724 33.87ZM61.7393 35.8721C61.7393 36.6256 62.0326 37.3027 62.6514 37.7746L63.8643 36.1844C63.7916 36.129 63.7393 36.0677 63.7393 35.8721H61.7393ZM62.6665 37.7859C63.1932 38.1722 64.0023 38.4448 64.9357 38.6647L65.3944 36.7181C64.4879 36.5044 64.0256 36.3024 63.8492 36.1731L62.6665 37.7859ZM64.937 38.6651C65.8355 38.8755 66.4251 39.0831 66.7652 39.2662L67.7134 37.5053C67.1394 37.1962 66.3461 36.9409 65.393 36.7177L64.937 38.6651ZM66.7698 39.2687C67.1224 39.4562 67.3188 39.6472 67.4269 39.8149L69.1083 38.732C68.771 38.2083 68.2819 37.8075 67.7087 37.5028L66.7698 39.2687ZM67.4269 39.8149C67.5266 39.9697 67.6016 40.1918 67.6016 40.5303H69.6016C69.6016 39.8843 69.4539 39.2685 69.1083 38.732L67.4269 39.8149ZM67.6016 40.5303C67.6016 41.013 67.4292 41.3572 67.0318 41.6508L68.2202 43.2594C69.1236 42.592 69.6016 41.6531 69.6016 40.5303H67.6016ZM67.0283 41.6533C66.6016 41.9714 65.9865 42.1758 65.0947 42.1758V44.1758C66.2889 44.1758 67.3612 43.8997 68.2236 43.2568L67.0283 41.6533ZM65.0947 42.1758C64.1482 42.1758 63.4813 41.9498 63.0072 41.5841L61.7858 43.1679C62.6945 43.8686 63.8264 44.1758 65.0947 44.1758V42.1758ZM63.0146 41.5899C62.5526 41.2266 62.3682 40.8288 62.3682 40.3369H60.3682C60.3682 41.4857 60.8693 42.4472 61.7784 43.1621L63.0146 41.5899ZM61.3682 41.3369H62.4229V39.3369H61.3682V41.3369ZM61.4251 40.4034C61.4847 41.2973 61.88 42.0567 62.6075 42.5866L63.7851 40.97C63.5634 40.8086 63.4431 40.607 63.4206 40.2704L61.4251 40.4034ZM62.6188 42.5947C63.3164 43.0881 64.1709 43.2881 65.0947 43.2881V41.2881C64.4483 41.2881 64.0371 41.1482 63.7738 40.9619L62.6188 42.5947ZM65.0947 43.2881C65.9693 43.2881 66.7836 43.0954 67.4514 42.6184L66.2889 40.991C66.0543 41.1585 65.685 41.2881 65.0947 41.2881V43.2881ZM67.4514 42.6184C68.1269 42.1359 68.5469 41.4427 68.5469 40.583H66.5469C66.5469 40.7077 66.5157 40.8289 66.2889 40.991L67.4514 42.6184Z" fill="#D29043"/>
<defs>
<linearGradient id="paint0_linear" x1="15" y1="0" x2="15" y2="56" gradientUnits="userSpaceOnUse">
<stop stop-color="#5D5FEF"/>
<stop offset="0.535714" stop-color="#7B58B6" stop-opacity="0.464286"/>
<stop offset="0.607143" stop-color="#DF9F3F" stop-opacity="0.63"/>
<stop offset="0.817708" stop-color="#CB9429" stop-opacity="0.74"/>
</linearGradient>
</defs>
</svg>
